<svg height="496pt" viewBox="0 0 496 496" width="496pt" xmlns="http://www.w3.org/2000/svg"><path fill="#fff" d="M248 312c17.648 0 32-14.352 32-32h-16c0 8.824-7.176 16-16 16s-16-7.176-16-16h-16c0 17.648 14.352 32 32 32zm0 0"/><path fill="#fff" d="M385.71 381.48L304 354.23v-22.406a88.134 88.134 0 0 0 28.71-44.304C352.528 285.16 368 268.44 368 248v-64c0-46.09-26.91-88.656-68.566-108.45l-6.868 14.458C328.672 107.16 352 144.055 352 184v32.207c-4.672-3.535-10.055-6.184-16-7.39V192h-16v21.977c-21.305-5.48-41.617-15.2-59.2-28.375l-7.663-5.754-4.29 8.566c-4.023 8.05-5.406 17.129-4.144 25.883l-3.969-.57c-23.277-3.32-45.55-12.286-64.726-25.887V168h-16v40.809c-5.945 1.214-11.328 3.855-16 7.39V184c0-39.945 23.328-76.84 59.433-93.992l-6.867-14.457C154.91 95.344 128 137.91 128 184v64c0 20.441 15.473 37.16 35.29 39.52A88.134 88.134 0 0 0 192 331.824v22.406l-81.703 27.243A55.917 55.917 0 0 0 72 434.593V496h352v-61.406a55.903 55.903 0 0 0-38.29-53.114zm-74.94-8.128l-12.196 60.945-38.246-27.32 37.824-37.825zM352 248c0 10.535-6.871 19.414-16.336 22.633.168-2.2.336-4.395.336-6.633v-38.527c9.29 3.312 16 12.113 16 22.527zm-208 0c0-10.414 6.71-19.215 16-22.527V264c0 2.238.168 4.434.336 6.633C150.87 267.414 144 258.535 144 248zm32 16v-57.016c19.04 11.649 40.336 19.43 62.465 22.59l31.52 4.496-6.833-13.656c-2.425-4.84-3.336-10.262-2.746-15.543 18.13 11.914 38.48 20.465 59.586 25.395V264c0 39.703-32.305 72-72 72S176 303.703 176 264zm72 88c14.406 0 27.984-3.55 40-9.71v14.397l-40 40-40-40V342.29c12.016 6.16 25.594 9.711 40 9.711zm-50.16 17.152l37.824 37.825-38.25 27.32-12.191-60.945zM408 480h-48v-32h-16v32H152v-32h-16v32H88v-45.406a39.945 39.945 0 0 1 27.352-37.946l54.585-18.191 16.649 83.246L248 417.832l61.414 43.871 16.649-83.246 54.585 18.191A39.953 39.953 0 0 1 408 434.594zm0 0"/><path fill="#fff" d="M216 240a8 8 0 1 1-16 0 8 8 0 0 1 16 0zm80 0a8 8 0 1 1-16 0 8 8 0 0 1 16 0zM456 0c-22.055 0-40 17.945-40 40v16h16V40c0-13.23 10.77-24 24-24s24 10.77 24 24v4.777c0 5.43-1.863 10.758-5.258 14.993L448 93.19V120h16V98.809l23.23-29.04A40.126 40.126 0 0 0 496 44.778V40c0-22.055-17.945-40-40-40zm-8 136h16v16h-16zm-24 24c-22.055 0-40 17.945-40 40v16h16v-16c0-13.23 10.77-24 24-24s24 10.77 24 24v4.777c0 5.43-1.863 10.758-5.258 14.993L416 253.19V280h16v-21.191l23.23-29.04a40.126 40.126 0 0 0 8.77-24.992V200c0-22.055-17.945-40-40-40zm-8 136h16v16h-16zM224 40c0-13.23 10.77-24 24-24s24 10.77 24 24v4.777c0 5.43-1.863 10.758-5.258 14.993L240 93.19V120h16V98.809l23.23-29.04A40.126 40.126 0 0 0 288 44.778V40c0-22.055-17.945-40-40-40s-40 17.945-40 40v16h16zm16 96h16v16h-16zM48 40c0-13.23 10.77-24 24-24s24 10.77 24 24v4.777c0 5.43-1.863 10.758-5.258 14.993L64 93.19V120h16V98.809l23.23-29.04A40.126 40.126 0 0 0 112 44.778V40c0-22.055-17.945-40-40-40S32 17.945 32 40v16h16zm16 96h16v16H64zm16 64c0-22.055-17.945-40-40-40S0 177.945 0 200v16h16v-16c0-13.23 10.77-24 24-24s24 10.77 24 24v4.777c0 5.43-1.863 10.758-5.258 14.993L32 253.19V280h16v-21.191l23.23-29.04A40.126 40.126 0 0 0 80 204.778zm-48 96h16v16H32zm0 0"/></svg>